<svg xmlns="http://www.w3.org/2000/svg" xmlns:xlink="http://www.w3.org/1999/xlink" xmlns:fi="http://pattern.flaticon.com/" x="0" y="0" width="700" height="350" viewBox="0 0 700 350"><rect x="0px" y="0px" width="100%" height="100%" opacity="1" fill="#ffffff"/><defs><g transform="matrix(0.11719390749931335 0 0 0.11719390749931335 284.9999977253624 25)" id="L1_0"><path d="m289.002 188.552c-12.214 0-23.25 5.368-31.169 14.017-.992 1.084-2.697 1.084-3.691 0-7.918-8.648-18.953-14.017-31.167-14.017-24.102 0-43.642 20.903-43.642 46.69 0 38.581 20.54 58.864 66.033 82.308 2.768 1.423 10.622 5.841 10.622 5.841s7.858-4.418 10.626-5.841c45.487-23.443 66.028-43.727 66.028-82.308-.002-25.787-19.538-46.69-43.64-46.69z" fill="#cc3600"/><path d="m497.513 207.254c-1.254-9.159-5.96-17.294-13.265-22.941l-43.343-37.094v-85.128c0-5.522-4.478-10-10-10h-43.927c-5.522 0-10 4.478-10 10v30.417l-99.37-85.045c-.148-.127-.3-.249-.455-.367-12.463-9.461-29.871-9.461-42.334 0-.155.118-.307.24-.455.367l-206.641 176.85c-7.305 5.647-12.011 13.782-13.265 22.941-1.269 9.265 1.146 18.469 6.801 25.915 5.653 7.448 13.868 12.249 23.133 13.518 1.611.221 3.222.33 4.821.33 5.866 0 11.588-1.469 16.724-4.292v259.247c0 5.522 4.478 10 10 10h360.098c5.522 0 10-4.478 10-10v-259.247c5.122 2.815 10.835 4.284 16.777 4.284 11.055 0 21.225-5.045 27.9-13.84 5.655-7.446 8.07-16.65 6.801-25.915zm-100.534-135.163h23.927v58.011l-23.927-20.477zm-183.461 419.881v-115.17h84.936v115.17zm104.936 0v-125.17c0-5.522-4.478-10-10-10h-104.936c-5.522 0-10 4.478-10 10v125.17h-107.581v-265.556l170.049-146.83 170.049 146.83v265.556zm156.328-270.895c-2.861 3.771-7.225 5.933-11.97 5.933-3.2 0-6.248-.998-8.834-2.89l-191.457-165.315c-3.754-3.24-9.316-3.24-13.07 0l-191.457 165.315c-3.153 2.306-7.006 3.281-10.889 2.751-3.971-.544-7.492-2.602-9.916-5.795-2.424-3.192-3.459-7.138-2.916-11.109.544-3.972 2.602-7.493 5.795-9.917.155-.118.307-.24.455-.367l206.594-176.81c5.26-3.854 12.479-3.854 17.738 0l206.594 176.81c.148.127.3.249.455.367 3.193 2.424 5.251 5.945 5.795 9.917.543 3.971-.492 7.917-2.917 11.11z" fill="#000000"/></g><g transform="matrix(0.1171875 0 0 0.1171875 200 59)" id="L1_2"><g fill="#020288"><path d="m114.427 66.787h154.723c5.523 0 10-4.477 10-10s-4.477-10-10-10h-154.723c-5.523 0-10 4.477-10 10s4.477 10 10 10z" fill="#000000"/><path d="m269.15 433.667h-154.723c-5.523 0-10 4.477-10 10s4.477 10 10 10h154.723c5.523 0 10-4.477 10-10s-4.477-10-10-10z" fill="#000000"/><path d="m423.771 130.006h-86.237v-82.793c-.001-26.033-21.18-47.213-47.214-47.213h-197.064c-26.033 0-47.212 21.18-47.212 47.213v417.574c0 26.033 21.179 47.213 47.212 47.213h197.064c26.033 0 47.213-21.18 47.213-47.213v-97.818h86.233c23.264 0 42.19-18.926 42.19-42.19v-152.587c0-23.261-18.924-42.186-42.185-42.186zm-106.238 334.781c0 15.005-12.208 27.213-27.213 27.213h-197.064c-15.005 0-27.212-12.208-27.212-27.213v-417.574c0-15.005 12.207-27.213 27.212-27.213h197.064c15.005 0 27.213 12.208 27.213 27.213v82.793h-106.233c-23.264 0-42.19 18.927-42.19 42.19v152.587c0 23.261 18.924 42.186 42.186 42.186h26.566l7.013 15.161c1.153 2.493 3.28 4.401 5.883 5.278 1.039.35 2.118.523 3.193.523 1.617 0 3.227-.392 4.684-1.165l37.347-19.798h21.553v97.819zm128.423-140.008c0 12.235-9.955 22.19-22.19 22.19h-130.272c-1.633 0-3.241.4-4.684 1.165l-30.216 16.018-5.264-11.381c-1.636-3.538-5.179-5.802-9.076-5.802h-32.958c-12.233 0-22.186-9.952-22.186-22.186v-152.587c0-12.236 9.954-22.19 22.19-22.19h212.471c12.233 0 22.186 9.953 22.186 22.186v152.587z" fill="#000000"/></g><path d="m347.198 187.154c-10.974 0-20.889 4.823-28.005 12.594-.892.974-2.423.974-3.317 0-7.114-7.77-17.029-12.594-28.003-12.594-21.655 0-39.212 18.781-39.212 41.95 0 34.664 18.455 52.889 59.329 73.952 2.487 1.279 9.543 5.248 9.543 5.248s7.06-3.969 9.547-5.248c40.87-21.063 59.325-39.288 59.325-73.952 0-23.169-17.552-41.95-39.207-41.95z" fill="#cc3600"/></g><g transform="matrix(0.10246849982687753 0.05269808693582518 -0.05269808693582518 0.10246849982687753 87.2587742998906 62.27735378874811)" id="L1_4"><path d="m289.016 0c-12.214 0-23.25 5.368-31.169 14.017-.992 1.084-2.697 1.084-3.691 0-7.918-8.649-18.954-14.017-31.168-14.017-24.102 0-43.642 20.903-43.642 46.69 0 38.581 20.54 58.864 66.033 82.308 2.768 1.423 10.622 5.841 10.622 5.841s7.858-4.418 10.626-5.841c45.487-23.443 66.028-43.727 66.028-82.308-.001-25.787-19.536-46.69-43.639-46.69z" fill="#cc3600"/><path d="m472.126 439.916h-125.108v-81.941c29.727-4.8 52.501-30.64 52.501-61.698v-127.744c0-5.522-4.477-10-10-10h-105.003c-5.523 0-10 4.478-10 10v127.744c0 31.058 22.775 56.898 52.502 61.698v81.941h-142.036v-81.941c29.727-4.8 52.502-30.639 52.502-61.698v-127.744c0-5.522-4.477-10-10-10h-105.003c-5.523 0-10 4.478-10 10v127.744c0 31.058 22.775 56.897 52.501 61.698v81.941h-125.108c-5.523 0-10 4.478-10 10v25.478c0 20.184 16.421 36.606 36.606 36.606h379.04c20.185 0 36.606-16.422 36.606-36.606v-25.478c0-5.522-4.477-10-10-10zm-177.61-261.383h85.003v36.773h-85.003zm0 117.744v-60.971h85.003v60.971c0 23.433-19.066 42.497-42.501 42.497s-42.502-19.064-42.502-42.497zm-162.035-117.744h85.003v36.773h-85.003zm0 117.744v-60.971h85.003v60.971c0 23.433-19.066 42.497-42.502 42.497s-42.501-19.064-42.501-42.497zm329.645 179.117c0 9.157-7.45 16.606-16.606 16.606h-379.04c-9.157 0-16.606-7.449-16.606-16.606v-15.478h412.253v15.478z" fill="#000000"/></g><g transform="matrix(0.1171875 0 0 0.1171875 39 218)" id="L1_5"><path d="m197.19 177.156c-14.371 0-27.356 6.278-36.675 16.392-1.168 1.268-3.173 1.268-4.343 0-9.316-10.114-22.301-16.392-36.672-16.392-28.359 0-51.351 24.445-51.351 54.602 0 45.118 24.168 68.839 77.696 96.255 3.257 1.665 12.498 6.831 12.498 6.831s9.246-5.166 12.503-6.831c53.522-27.416 77.69-51.137 77.69-96.255-.001-30.157-22.987-54.602-51.346-54.602z" fill="#cc3600"/><g fill="#020288"><path d="m158.893 95.64c-5.522 0-10 4.478-10 10v10.146c0 5.522 4.478 10 10 10s10-4.478 10-10v-10.146c0-5.523-4.478-10-10-10z" fill="#000000"/><path d="m80.646 126.476c-3.906-3.904-10.236-3.904-14.143 0-3.905 3.905-3.905 10.237 0 14.143l7.175 7.175c1.953 1.952 4.512 2.929 7.071 2.929s5.118-.977 7.071-2.929c3.905-3.905 3.905-10.237 0-14.143z" fill="#000000"/><path d="m237.138 126.476-7.175 7.175c-3.905 3.905-3.905 10.237 0 14.143 1.953 1.952 4.512 2.929 7.071 2.929s5.118-.977 7.071-2.929l7.175-7.175c3.905-3.905 3.905-10.237 0-14.143-3.906-3.905-10.236-3.905-14.142 0z" fill="#000000"/><path d="m158.893 386.214c-5.522 0-10 4.478-10 10v10.146c0 5.522 4.478 10 10 10s10-4.478 10-10v-10.146c0-5.523-4.478-10-10-10z" fill="#000000"/><path d="m244.105 364.207c-3.906-3.904-10.236-3.904-14.143 0-3.905 3.905-3.905 10.237 0 14.143l7.175 7.175c1.953 1.952 4.512 2.929 7.071 2.929s5.118-.977 7.071-2.929c3.905-3.905 3.905-10.237 0-14.143z" fill="#000000"/><path d="m73.679 364.207-7.175 7.175c-3.905 3.905-3.905 10.237 0 14.143 1.953 1.952 4.512 2.929 7.071 2.929s5.118-.977 7.071-2.929l7.175-7.175c3.905-3.905 3.905-10.237 0-14.143-3.906-3.904-10.236-3.904-14.142 0z" fill="#000000"/><path d="m71.679 332.154c-.032-5.504-4.503-9.942-9.999-9.942h-.059c-12.526.072-30.687.144-41.621.126v-142.679c0-5.522-4.478-10-10-10s-10 4.478-10 10v152.553c0 4.848 3.477 8.997 8.249 9.846.754.134 36.636.252 53.487.154 5.524-.032 9.975-4.535 9.943-10.058z" fill="#000000"/><path d="m502 321.644h-51.618v-55.644h47.075c5.522 0 10-4.478 10-10s-4.478-10-10-10h-47.075v-55.644h51.618c5.522 0 10-4.478 10-10s-4.478-10-10-10h-61.618c-5.522 0-10 4.478-10 10v151.287c0 5.522 4.478 10 10 10h61.618c5.522 0 10-4.478 10-10s-4.478-9.999-10-9.999z" fill="#000000"/><path d="m383.85 169.113c-5.228-1.776-10.908 1.03-12.68 6.262l-42.895 126.601-41.973-126.361c-1.741-5.241-7.403-8.081-12.643-6.338-5.241 1.741-8.079 7.401-6.338 12.643l51.369 154.649c1.354 4.078 5.163 6.835 9.46 6.848h.03c4.285 0 8.096-2.73 9.471-6.791l52.459-154.832c1.774-5.231-1.03-10.909-6.26-12.681z" fill="#000000"/></g></g><g transform="matrix(0.1171875 0 0 0.1171875 182.00000124454505 284)" id="L1_6"><path d="m287.112 295.324c-11.51 0-21.909 5.059-29.372 13.208-.935 1.022-2.541 1.022-3.479 0-7.461-8.15-17.86-13.208-29.37-13.208-22.712 0-41.126 19.698-41.126 43.998 0 36.356 19.356 55.47 62.225 77.562 2.608 1.341 10.009 5.504 10.009 5.504s7.405-4.163 10.013-5.504c42.865-22.092 62.221-41.206 62.221-77.562.001-24.3-18.408-43.998-41.121-43.998z" fill="#cc3600"/><path d="m358.309 140.422h-73.525c15.082-14.235 31.832-35.588 31.832-60.211 0-43.835-53.081-77.304-55.341-78.707-3.23-2.006-7.32-2.006-10.551 0-2.26 1.403-55.341 34.872-55.341 78.707 0 24.623 16.75 45.976 31.832 60.211h-73.525c-5.522 0-10 4.478-10 10v351.578c0 5.522 4.478 10 10 10h204.619c5.522 0 10-4.478 10-10v-351.578c0-5.522-4.477-10-10-10zm-142.925-60.211c0-25.957 28.636-49.418 40.669-58.129 14.848 10.663 40.563 34.121 40.563 58.129 0 20.154-17.265 38.804-30.616 50.213v-32.066c0-5.522-4.478-10-10-10s-10 4.478-10 10v32.066c-13.353-11.41-30.616-30.059-30.616-50.213zm-51.694 80.211h105.497v31.521c0 6.047-4.725 11.123-10.532 11.316-3.005.081-5.871-.991-8.022-3.072-2.114-2.044-3.278-4.779-3.278-7.699 0-5.522-4.478-10-10-10s-10 4.478-10 10v17.683c0 2.921-1.164 5.655-3.277 7.7-2.151 2.081-5.022 3.161-8.022 3.072-5.808-.193-10.532-5.27-10.532-11.316 0-5.522-4.478-10-10-10s-10 4.478-10 10v37.639c0 5.943-4.896 10.778-10.916 10.778s-10.916-4.835-10.916-10.778v-86.844zm184.619 331.578h-184.619v-215.937c3.396 1.28 7.075 1.981 10.916 1.981 17.047 0 30.916-13.807 30.916-30.778v-8.361c3.091 1.204 6.412 1.913 9.869 2.027 8.504.277 16.51-2.804 22.591-8.687 3.446-3.334 6.01-7.316 7.577-11.679 4.254 1.914 8.928 2.839 13.76 2.682 16.469-.546 29.868-14.59 29.868-31.305v-31.521h59.122z" fill="#000000"/></g><g transform="matrix(0.1171875 0 0 0.1171875 274 219.00000231742843)" id="L1_7"><path d="m372.493 112.731c-12.214 0-23.25 5.368-31.169 14.017-.992 1.084-2.697 1.084-3.691 0-7.918-8.648-18.953-14.017-31.167-14.017-24.102 0-43.642 20.903-43.642 46.69 0 38.581 20.54 58.864 66.033 82.308 2.768 1.423 10.622 5.841 10.622 5.841s7.858-4.418 10.626-5.841c45.487-23.443 66.028-43.727 66.028-82.308-.002-25.787-19.538-46.69-43.64-46.69z" fill="#cc3600"/><g fill="#020288"><path d="m463.69 35.43h-252.862c-26.636 0-48.305 21.704-48.305 48.382v89.03h-114.213c-26.638 0-48.31 21.706-48.31 48.387v181.961c0 26.678 21.669 48.382 48.305 48.382h32.826l8.858 19.189c1.152 2.496 3.281 4.407 5.886 5.285 1.039.35 2.118.523 3.193.523 1.619 0 3.232-.394 4.691-1.168l44.86-23.829h152.547c26.638 0 48.31-21.706 48.31-48.387v-89.025h13.903l44.86 23.829c1.46.775 3.072 1.168 4.691 1.168 1.075 0 2.154-.173 3.193-.523 2.604-.878 4.733-2.79 5.886-5.285l8.858-19.189h32.826c26.636 0 48.305-21.704 48.305-48.382v-181.961c.002-26.681-21.67-48.387-48.308-48.387zm-134.213 367.756c0 15.652-12.699 28.387-28.31 28.387h-155.038c-1.636 0-3.246.401-4.691 1.168l-37.722 20.038-7.108-15.397c-1.635-3.541-5.179-5.809-9.079-5.809h-39.224c-15.608-.001-28.305-12.733-28.305-28.383v-181.961c0-15.652 12.699-28.387 28.31-28.387h114.214v72.931c0 26.681 21.672 48.387 48.31 48.387h118.644v89.026zm162.523-137.408c0 15.65-12.697 28.382-28.305 28.382h-39.224c-3.9 0-7.444 2.268-9.079 5.809l-7.108 15.397-37.722-20.038c-1.445-.767-3.056-1.168-4.691-1.168h-155.038c-15.61 0-28.31-12.734-28.31-28.387v-181.961c0-15.65 12.697-28.382 28.305-28.382h252.862c15.61 0 28.31 12.734 28.31 28.387z" fill="#000000"/><path d="m60.651 369.042c0 5.523 4.478 10 10 10h203.744c5.522 0 10-4.477 10-10s-4.478-10-10-10h-203.744c-5.522 0-10 4.478-10 10z" fill="#000000"/></g></g><g transform="matrix(0.1171875 0 0 0.1171875 271 131)" id="L1_8"><path d="m256 470.043c-1.61 0-3.221-.389-4.686-1.166-.25-.133-25.146-13.334-33.765-17.515-80.318-39.033-130.832-72.865-163.792-109.7-36.675-40.986-53.757-88.141-53.757-148.398 0-83.431 67.316-151.307 150.058-151.307 40.079 0 77.63 15.675 105.946 44.181 28.324-28.507 65.877-44.181 105.952-44.181 82.735 0 150.044 67.876 150.044 151.307 0 60.257-17.081 107.412-53.754 148.398-32.959 36.834-83.468 70.667-163.772 109.697-8.628 4.184-33.539 17.386-33.789 17.519-1.466.777-3.076 1.165-4.685 1.165zm-105.942-408.086c-71.714 0-130.058 58.904-130.058 131.307 0 104.566 52.053 165.154 206.284 240.107 6.665 3.232 21.949 11.261 29.717 15.36 7.772-4.1 23.067-12.129 29.736-15.364 154.214-74.952 206.263-135.539 206.263-240.103 0-72.403-58.337-131.307-130.043-131.307-35.215 0-68.191 13.988-92.855 39.387-3.386 3.489-8.156 5.493-13.086 5.496-.003 0-.006 0-.009 0-4.93 0-9.702-2.001-13.095-5.491-24.662-25.404-57.637-39.392-92.854-39.392z" fill="#000000"/><g><path d="m433.593 140.697c15.605 15.605 15.605 40.906 0 56.512l-85.017 85.017c-15.605 15.605-40.906 15.605-56.512 0-15.605-15.605-15.605-40.906 0-56.512l85.017-85.017c15.606-15.606 40.907-15.606 56.512 0z" fill="#cc3600"/><path d="m433.593 282.225c-15.605 15.605-40.906 15.605-56.512 0l-85.017-85.017c-15.605-15.605-15.605-40.906 0-56.512 15.605-15.605 40.906-15.605 56.512 0l85.017 85.017c15.606 15.606 15.606 40.907 0 56.512z" fill="#cc3600"/></g></g><g transform="matrix(0.08265217737105396 0.08265217737105396 -0.08265217737105396 0.08265217737105396 96 289.68208518602034)" id="L1_9"><path d="m291.206 0c-13.024 0-24.792 5.701-33.237 14.885-1.058 1.152-2.876 1.152-3.936 0-8.442-9.184-20.21-14.885-33.234-14.885-25.701 0-46.537 22.198-46.537 49.583 0 40.971 21.903 62.512 70.412 87.408 2.952 1.512 11.326 6.203 11.326 6.203s8.379-4.691 11.331-6.203c48.505-24.896 70.408-46.436 70.408-87.408 0-27.385-20.832-49.583-46.533-49.583z" fill="#cc3600"/><g fill="#020288"><path d="m407.101 196.369h-74.643c-5.523 0-10 4.478-10 10v145.149c0 36.473-29.813 66.145-66.458 66.145s-66.458-29.672-66.458-66.145v-145.149c0-5.522-4.477-10-10-10h-74.643c-5.523 0-10 4.478-10 10v145.149c0 88.491 72.269 160.482 161.101 160.482s161.101-71.991 161.101-160.481v-145.15c0-5.522-4.477-10-10-10zm-64.643 20h54.643v42.171h-54.643zm-227.559 0h54.643v42.171h-54.643zm0 135.15v-72.979h54.643v72.979c0 44.132 33.477 80.618 76.458 85.572v54.561c-73.155-5.126-131.101-66.019-131.101-140.133zm282.202 0c0 74.114-57.946 135.008-131.101 140.133v-54.561c42.981-4.954 76.458-41.44 76.458-85.572v-72.979h54.643z" fill="#000000"/><path d="m349.928 169.349c5.523 0 10-4.478 10-10v-45.551c0-5.522-4.477-10-10-10s-10 4.478-10 10v45.551c0 5.522 4.477 10 10 10z" fill="#000000"/><path d="m389.632 182.002c5.523 0 10-4.478 10-10v-35.429c0-5.522-4.477-10-10-10s-10 4.478-10 10v35.429c0 5.522 4.477 10 10 10z" fill="#000000"/><path d="m162.072 169.349c5.523 0 10-4.478 10-10v-45.551c0-5.522-4.477-10-10-10s-10 4.478-10 10v45.551c0 5.522 4.477 10 10 10z" fill="#000000"/><path d="m122.368 182.002c5.523 0 10-4.478 10-10v-35.429c0-5.522-4.477-10-10-10s-10 4.478-10 10v35.429c0 5.522 4.477 10 10 10z" fill="#000000"/></g></g><g transform="matrix(0.1171875 0 0 0.1171875 145.00000154495228 199.99999751091002)" id="L1_10"><path d="m255.163 178.58c-12.214 0-23.25 5.368-31.169 14.017-.993 1.084-2.697 1.084-3.691 0-7.918-8.648-18.953-14.017-31.167-14.017-24.102 0-43.642 20.903-43.642 46.69 0 38.581 20.54 58.864 66.033 82.308 2.768 1.423 10.622 5.841 10.622 5.841s7.858-4.418 10.626-5.841c45.487-23.443 66.028-43.727 66.028-82.308-.002-25.787-19.538-46.69-43.64-46.69z" fill="#cc3600"/><g fill="#020288"><path d="m361.957 41.957c-40.075 0-77.628 15.674-105.952 44.181-28.316-28.506-65.868-44.181-105.946-44.181-82.743 0-150.059 67.876-150.059 151.307 0 60.258 17.082 107.412 53.757 148.398 32.961 36.835 83.474 70.667 163.793 109.701 8.619 4.18 33.514 17.381 33.764 17.514 1.465.777 3.076 1.166 4.686 1.166 1.609 0 3.219-.389 4.684-1.165.25-.133 25.16-13.334 33.789-17.519 80.304-39.031 130.813-72.863 163.772-109.697 36.674-40.987 53.755-88.141 53.755-148.398 0-83.431-67.309-151.307-150.043-151.307zm-76.219 391.41c-6.67 3.234-21.965 11.265-29.737 15.364-7.769-4.101-23.053-12.129-29.717-15.36-154.231-74.954-206.284-135.542-206.284-240.107 0-72.402 58.344-131.307 130.058-131.307 35.217 0 68.191 13.987 92.854 39.392 3.393 3.49 8.166 5.491 13.095 5.491h.009c4.93-.003 9.7-2.007 13.086-5.495 24.664-25.399 57.64-39.388 92.855-39.388 71.706 0 130.043 58.904 130.043 131.307 0 104.563-52.049 165.151-206.262 240.103z" fill="#000000"/><path d="m113.881 187.28c-5.523 0-10 4.478-10 10v97.439c0 5.522 4.477 10 10 10s10-4.478 10-10v-97.439c0-5.522-4.477-10-10-10z" fill="#000000"/><path d="m398.119 187.28c-5.523 0-10 4.478-10 10v66.979c0 4.881-1.333 12.041-12.861 17.847-3.445 1.735-7.328 2.614-11.544 2.614h-.042c-4.729-.006-8.847-1.172-12.59-3.563-7.579-4.842-10.67-9.717-10.67-16.827v-67.05c0-5.522-4.477-10-10-10s-10 4.478-10 10v67.049c0 14.107 6.51 25.125 19.902 33.681 6.951 4.441 14.801 6.698 23.331 6.71h.07c7.367 0 14.276-1.599 20.538-4.751 19.725-9.935 23.866-24.902 23.866-35.71v-66.979c0-5.522-4.477-10-10-10z" fill="#000000"/></g></g></defs><g fi:class="KUsePattern" opacity="0.09"><pattern id="pattern_L1_0" width="350" height="350" patternUnits="userSpaceOnUse"><use xlink:href="#L1_0" x="-350" y="-350"/><use xlink:href="#L1_0" x="0" y="-350"/><use xlink:href="#L1_0" x="350" y="-350"/><use xlink:href="#L1_0" x="-350" y="0"/><use xlink:href="#L1_0" x="0" y="0"/><use xlink:href="#L1_0" x="350" y="0"/><use xlink:href="#L1_0" x="-350" y="350"/><use xlink:href="#L1_0" x="0" y="350"/><use xlink:href="#L1_0" x="350" y="350"/></pattern><rect x="0" y="0" width="100%" height="100%" fill="url(#pattern_L1_0)"/></g><g fi:class="KUsePattern" opacity="0.09"><pattern id="pattern_L1_2" width="350" height="350" patternUnits="userSpaceOnUse"><use xlink:href="#L1_2" x="-350" y="-350"/><use xlink:href="#L1_2" x="0" y="-350"/><use xlink:href="#L1_2" x="350" y="-350"/><use xlink:href="#L1_2" x="-350" y="0"/><use xlink:href="#L1_2" x="0" y="0"/><use xlink:href="#L1_2" x="350" y="0"/><use xlink:href="#L1_2" x="-350" y="350"/><use xlink:href="#L1_2" x="0" y="350"/><use xlink:href="#L1_2" x="350" y="350"/></pattern><rect x="0" y="0" width="100%" height="100%" fill="url(#pattern_L1_2)"/></g><g fi:class="KUsePattern" opacity="0.09"><pattern id="pattern_L1_4" width="350" height="350" patternUnits="userSpaceOnUse"><use xlink:href="#L1_4" x="-350" y="-350"/><use xlink:href="#L1_4" x="0" y="-350"/><use xlink:href="#L1_4" x="350" y="-350"/><use xlink:href="#L1_4" x="-350" y="0"/><use xlink:href="#L1_4" x="0" y="0"/><use xlink:href="#L1_4" x="350" y="0"/><use xlink:href="#L1_4" x="-350" y="350"/><use xlink:href="#L1_4" x="0" y="350"/><use xlink:href="#L1_4" x="350" y="350"/></pattern><rect x="0" y="0" width="100%" height="100%" fill="url(#pattern_L1_4)"/></g><g fi:class="KUsePattern" opacity="0.09"><pattern id="pattern_L1_5" width="350" height="350" patternUnits="userSpaceOnUse"><use xlink:href="#L1_5" x="-350" y="-350"/><use xlink:href="#L1_5" x="0" y="-350"/><use xlink:href="#L1_5" x="350" y="-350"/><use xlink:href="#L1_5" x="-350" y="0"/><use xlink:href="#L1_5" x="0" y="0"/><use xlink:href="#L1_5" x="350" y="0"/><use xlink:href="#L1_5" x="-350" y="350"/><use xlink:href="#L1_5" x="0" y="350"/><use xlink:href="#L1_5" x="350" y="350"/></pattern><rect x="0" y="0" width="100%" height="100%" fill="url(#pattern_L1_5)"/></g><g fi:class="KUsePattern" opacity="0.09"><pattern id="pattern_L1_9" width="350" height="350" patternUnits="userSpaceOnUse"><use xlink:href="#L1_9" x="-350" y="-350"/><use xlink:href="#L1_9" x="0" y="-350"/><use xlink:href="#L1_9" x="350" y="-350"/><use xlink:href="#L1_9" x="-350" y="0"/><use xlink:href="#L1_9" x="0" y="0"/><use xlink:href="#L1_9" x="350" y="0"/><use xlink:href="#L1_9" x="-350" y="350"/><use xlink:href="#L1_9" x="0" y="350"/><use xlink:href="#L1_9" x="350" y="350"/></pattern><rect x="0" y="0" width="100%" height="100%" fill="url(#pattern_L1_9)"/></g><g fi:class="KUsePattern" opacity="0.09"><pattern id="pattern_L1_6" width="350" height="350" patternUnits="userSpaceOnUse"><use xlink:href="#L1_6" x="-350" y="-350"/><use xlink:href="#L1_6" x="0" y="-350"/><use xlink:href="#L1_6" x="350" y="-350"/><use xlink:href="#L1_6" x="-350" y="0"/><use xlink:href="#L1_6" x="0" y="0"/><use xlink:href="#L1_6" x="350" y="0"/><use xlink:href="#L1_6" x="-350" y="350"/><use xlink:href="#L1_6" x="0" y="350"/><use xlink:href="#L1_6" x="350" y="350"/></pattern><rect x="0" y="0" width="100%" height="100%" fill="url(#pattern_L1_6)"/></g><g fi:class="KUsePattern" opacity="0.09"><pattern id="pattern_L1_7" width="350" height="350" patternUnits="userSpaceOnUse"><use xlink:href="#L1_7" x="-350" y="-350"/><use xlink:href="#L1_7" x="0" y="-350"/><use xlink:href="#L1_7" x="350" y="-350"/><use xlink:href="#L1_7" x="-350" y="0"/><use xlink:href="#L1_7" x="0" y="0"/><use xlink:href="#L1_7" x="350" y="0"/><use xlink:href="#L1_7" x="-350" y="350"/><use xlink:href="#L1_7" x="0" y="350"/><use xlink:href="#L1_7" x="350" y="350"/></pattern><rect x="0" y="0" width="100%" height="100%" fill="url(#pattern_L1_7)"/></g><g fi:class="KUsePattern" opacity="0.09"><pattern id="pattern_L1_8" width="350" height="350" patternUnits="userSpaceOnUse"><use xlink:href="#L1_8" x="-350" y="-350"/><use xlink:href="#L1_8" x="0" y="-350"/><use xlink:href="#L1_8" x="350" y="-350"/><use xlink:href="#L1_8" x="-350" y="0"/><use xlink:href="#L1_8" x="0" y="0"/><use xlink:href="#L1_8" x="350" y="0"/><use xlink:href="#L1_8" x="-350" y="350"/><use xlink:href="#L1_8" x="0" y="350"/><use xlink:href="#L1_8" x="350" y="350"/></pattern><rect x="0" y="0" width="100%" height="100%" fill="url(#pattern_L1_8)"/></g><g fi:class="KUsePattern" opacity="0.09"><pattern id="pattern_L1_10" width="350" height="350" patternUnits="userSpaceOnUse"><use xlink:href="#L1_10" x="-350" y="-350"/><use xlink:href="#L1_10" x="0" y="-350"/><use xlink:href="#L1_10" x="350" y="-350"/><use xlink:href="#L1_10" x="-350" y="0"/><use xlink:href="#L1_10" x="0" y="0"/><use xlink:href="#L1_10" x="350" y="0"/><use xlink:href="#L1_10" x="-350" y="350"/><use xlink:href="#L1_10" x="0" y="350"/><use xlink:href="#L1_10" x="350" y="350"/></pattern><rect x="0" y="0" width="100%" height="100%" fill="url(#pattern_L1_10)"/></g></svg>