<?xml version="1.0"?>
<svg xmlns="http://www.w3.org/2000/svg"
     xmlns:xlink="http://www.w3.org/1999/xlink"
     xmlns:svgjs="http://svgjs.com/svgjs"
     version="1.1" width="512" height="512" x="0" y="0"
     viewBox="0 0 511.824 511.824" style="enable-background:new 0 0 512 512" xml:space="preserve" class="">
  <g><g xmlns="http://www.w3.org/2000/svg">
    <path d="m67.252 214.771c-8.504 0-15.399 6.853-15.399 15.307s6.894 15.307 15.399 15.307h443.973v-30.613h-443.973z" fill="#965028" data-original="#965028" style="" class=""/><g>
    <path d="m124.21 100.377-.306-4.177h-41.69l-.374 2.285c-2.128 12.997 7.903 24.804 21.073 24.804 12.407 0 22.203-10.538 21.297-22.912z" fill="#ffb69e" data-original="#ffb69e" style="" class=""/><g id="XMLID_749_">
    <path d="m115.258 485.736-59.14-82.734c-2.96-4.141-4.551-9.104-4.551-14.194v-97.196s10.928-24.409 24.408-24.409 24.408 10.928 24.408 24.409v89.37l54.589 76.368c7.839 10.967 5.304 26.212-5.663 34.051-10.946 7.822-26.196 5.324-34.051-5.665z" fill="#414b82" data-original="#414b82" style="" class=""/>
  </g><ellipse cx="104.345" cy="42.002" fill="#ffb69e" rx="42.002" ry="42.002" transform="matrix(.707 -.707 .707 .707 .862 86.085)" data-original="#ffb69e" style="" class=""/><g id="XMLID_746_">
    <path d="m98.179 511.488c-13.297-2.216-22.28-14.792-20.063-28.089l32.633-195.801 48.18 4.013-32.66 199.813c-2.213 13.275-14.767 22.282-28.09 20.064z" fill="#5f6e9b" data-original="#5f6e9b" style="" class=""/></g><path d="m43.42 180.464-21.293-8.835-21.341 8.835-.187 103.645c0 11.852 9.607 21.459 21.459 21.459s21.459-9.607 21.459-21.459l.137-93.672c-.079.003-.154-9.973-.234-9.973z" fill="#ffb69e" data-original="#ffb69e" style="" class=""/>
    <path d="m211.797 133.322c-10.095-22.551-32.584-37.122-57.292-37.122h-30.601c.38 11.179-10.009 20.664-20.855 20.664-11.624 0-20.241-9.449-20.835-20.664h-32.099c-26.966 0-49.016 21.939-49.152 48.906l-.177 35.358h42.634c.098 0 .189.009.284.014l.177-35.156c.017-3.421 2.813-6.205 6.234-6.205h1.467v152.493h107.347v-151.988c5.99 1.373 11.121 5.481 13.698 11.237l5.215 11.647 28.717 4.94 10.455-22.477z" fill="#09203f" data-original="#64afff" style="" class=""/><path d="m144.872 160.286h-23.96c-1.405 0-2.511 1.201-2.395 2.601l4.785 57.98h19.181l4.785-57.98c.115-1.4-.99-2.601-2.396-2.601z" fill="#afe6ff" data-original="#afe6ff" style="" class=""/><g>
    <path d="m234.519 184.069-17.506-39.1-39.172 17.537 7.816 17.458-57.608 19.17c-11.245 3.742-17.328 15.892-13.586 27.137 2.994 8.998 11.369 14.689 20.358 14.689 2.245 0 4.53-.356 6.778-1.104l80.108-26.657c5.753-1.915 10.428-6.173 12.868-11.723 2.442-5.549 2.421-11.873-.056-17.407z" fill="#ffb69e" data-original="#ffb69e" style="" class=""/></g></g><g><g id="XMLID_760_"><path d="m479.274 159.324-29.264-19.431-24.687-1.436 2.46 35.909 12.673 8.415-37.091 63.483c-5.714 9.778-2.419 22.337 7.36 28.051 9.78 5.714 22.34 2.416 28.051-7.36l46.859-80.202c5.485-9.384 2.694-21.416-6.361-27.429z" fill="#ffb69e" data-original="#ffb69e" style="" class=""/></g><g id="XMLID_759_">
    <path d="m450.01 139.894-43.625-28.966c-9.437-6.266-22.164-3.693-28.427 5.74-6.265 9.435-3.694 22.162 5.74 28.427l44.085 29.271z" fill="#5f6e9b" data-original="#fa5565" style="" class=""/></g><g id="XMLID_758_"><path d="m396.479 511.638c-13.59 0-24.608-11.017-24.608-24.608v-194.855c0-13.591 11.018-24.608 24.608-24.608s24.608 11.017 24.608 24.608v194.855c0 13.591-11.018 24.608-24.608 24.608z" fill="#ffb69e" data-original="#ffb69e" style="" class=""/></g><g id="XMLID_757_">
    <path d="m320.962 511.616c-13.579-.578-24.117-12.055-23.538-25.633l4.38-102.831c.075-1.775.343-3.537.798-5.254l24.379-92.024c3.479-13.138 16.952-20.964 30.088-17.486 13.137 3.48 20.966 16.951 17.486 30.089l-23.694 89.44-4.266 100.161c-.579 13.57-12.057 24.123-25.633 23.538z" fill="#ffb69e" data-original="#ffb69e" style="" class=""/></g><path id="XMLID_756_" d="m323.2 122.43c2.275-12.432 12.355-21.418 24.07-21.418h42.445c11.74 0 21.791 8.96 24.07 21.418l37.519 205.049c.606 3.313-.192 6.744-2.173 9.355s-4.94 4.134-8.061 4.134c-31.709 0-113.468 0-145.155 0-3.124 0-6.083-1.514-8.065-4.127-1.982-2.612-2.776-6.048-2.169-9.363z" fill="#09203f" data-original="#ff6473" style="" class=""/><ellipse cx="368.492" cy="43.267" fill="#ffb69e" rx="42.103" ry="42.103" transform="matrix(.998 -.071 .071 .998 -2.14 26.231)" data-original="#ffb69e" style="" class=""/><g id="XMLID_751_">
    <path d="m338.574 177.844-4.229 28.251-65.27 44.527c-9.356 6.383-11.766 19.141-5.383 28.497 6.397 9.376 19.161 11.752 28.497 5.384l72.668-49.574c4.717-3.218 7.878-8.257 8.724-13.904l5.644-37.704-18.143-12.252z" fill="#ffb69e" data-original="#ffb69e" style="" class=""/></g><g id="XMLID_750_">
    <path d="m379.224 183.32 7.638-51.029c1.676-11.201-6.044-21.64-17.245-23.317-11.217-1.677-21.641 6.045-23.317 17.245l-7.727 51.625z" fill="#5f6e9b" data-original="#fa5565" style="" class=""/></g></g></g></g></svg>
