<?xml version="1.0"?>
<svg xmlns="http://www.w3.org/2000/svg" xmlns:xlink="http://www.w3.org/1999/xlink" xmlns:svgjs="http://svgjs.com/svgjs" version="1.1" width="512" height="512" x="0" y="0" viewBox="0 0 512 512" style="enable-background:new 0 0 512 512" xml:space="preserve" class=""><g><defs xmlns="http://www.w3.org/2000/svg"><linearGradient id="linear-gradient" x1="256" y1="496" x2="256" y2="16" gradientUnits="userSpaceOnUse"><stop offset="0" stop-color="#12c2e9"/><stop offset="0.5" stop-color="#c471ed"/><stop offset="1" stop-color="#f64f59"/></linearGradient></defs><path xmlns="http://www.w3.org/2000/svg" d="M322.833,298.848a120.073,120.073,0,0,0,65.3-181.039L408,97.941V104a24,24,0,0,0,48,0V40a24.028,24.028,0,0,0-24-24H368a24,24,0,0,0,0,48h6.059L354.191,83.866a120.142,120.142,0,0,0-181.078,65.285A120.028,120.028,0,0,0,184,381.587V400H168a24,24,0,0,0,0,48h16v24a24,24,0,0,0,48,0V448h16a24,24,0,0,0,0-48H232V381.587A120.42,120.42,0,0,0,322.833,298.848Zm-119.686-30a119.97,119.97,0,0,0,65.674,33.609,71.986,71.986,0,1,1-99.3-99.328A119.106,119.106,0,0,0,203.147,268.852Zm24.039-123.323a71.985,71.985,0,1,1,99.278,99.35A120.309,120.309,0,0,0,227.186,145.529ZM399.03,61.657A8,8,0,0,0,393.373,48H368a8,8,0,0,1,0-16h64a8.009,8.009,0,0,1,8,8v64a8,8,0,0,1-16,0V78.627a8,8,0,0,0-13.657-5.657L378.32,104.994q-2.629-3-5.467-5.848t-5.847-5.466Zm-184.568,48.8a104,104,0,1,1,112.4,170.029A120.59,120.59,0,0,0,328,264c0-.535-.012-1.067-.02-1.6a88.008,88.008,0,1,0-48.384,9.2,71.353,71.353,0,0,1-3.493,15.72,104,104,0,0,1-61.641-176.856Zm2.06,82.06a72.119,72.119,0,0,1,62.956,62.958A72.119,72.119,0,0,1,216.522,192.521ZM104,264a103.955,103.955,0,0,1,65.126-96.5A121.81,121.81,0,0,0,168,184c0,.535.012,1.068.02,1.6a88.008,88.008,0,1,0,48.384-9.2,71.426,71.426,0,0,1,3.5-15.728A104,104,0,1,1,104,264ZM224,416h24a8,8,0,0,1,0,16H224a8,8,0,0,0-8,8v32a8,8,0,0,1-16,0V440a8,8,0,0,0-8-8H168a8,8,0,0,1,0-16h24a8,8,0,0,0,8-8V383.727c2.645.175,5.311.273,8,.273s5.355-.1,8-.273V408A8,8,0,0,0,224,416ZM52.9,102.108C70.829,123.508,81.884,128,88,128c11.08,0,25.205-14.08,35.1-25.892C128.005,96.259,144,76.221,144,64A31.987,31.987,0,0,0,88,42.855,31.987,31.987,0,0,0,32,64C32,76.221,48,96.259,52.9,102.108ZM64,48A16.019,16.019,0,0,1,80,64v2.158a8,8,0,1,0,16,0V64a16,16,0,0,1,32,0c-.047,2.546-4.972,13.136-16.625,27.193C99.249,105.815,90.394,111.513,88,111.984c-2.394-.471-11.249-6.169-23.375-20.795C52.972,77.132,48.047,66.542,48,64A16.019,16.019,0,0,1,64,48ZM448,384a31.936,31.936,0,0,0-24,10.855A31.987,31.987,0,0,0,368,416c0,12.221,16,32.259,20.9,38.108C406.829,475.508,417.884,480,424,480c11.08,0,25.2-14.08,35.1-25.892,4.9-5.849,20.9-25.887,20.9-38.108A32.036,32.036,0,0,0,448,384Zm-.625,59.189c-12.126,14.626-20.981,20.324-23.375,20.795-2.394-.471-11.249-6.169-23.375-20.795C388.972,429.132,384.047,418.542,384,416a16,16,0,0,1,32,0v2.158a8,8,0,0,0,16,0V416a16,16,0,0,1,32,0C463.953,418.542,459.028,429.132,447.375,443.189ZM40,384a24,24,0,1,0,24,24A24.028,24.028,0,0,0,40,384Zm0,32a8,8,0,1,1,8-8A8.009,8.009,0,0,1,40,416ZM472,256a24,24,0,1,0,24,24A24.028,24.028,0,0,0,472,256Zm0,32a8,8,0,1,1,8-8A8.009,8.009,0,0,1,472,288Z" style="fill:url(#linear-gradient)" fill=""/></g></svg>
