<?xml version="1.0"?>
<svg xmlns="http://www.w3.org/2000/svg" xmlns:xlink="http://www.w3.org/1999/xlink" xmlns:svgjs="http://svgjs.com/svgjs" version="1.1" width="512" height="512" x="0" y="0" viewBox="0 0 496 496" style="enable-background:new 0 0 512 512" xml:space="preserve" class=""><circle r="248" cx="248" cy="248" fill="#bac8d3" shape="circle"/><g transform="matrix(1,0,0,1,1.9895196601282805e-13,2.2737367544323206e-13)"><g xmlns="http://www.w3.org/2000/svg" fill="#f0bc5e"><path d="m432.335938 94.34375c-25.703126-30.800781-58.992188-55.015625-96.976563-69.871094l-87.359375 63.527344v80l80 56 72-24 32-104zm0 0" fill="#09203f" data-original="#f0bc5e" style="" class=""/><path d="m487.441406 263.59375-87.441406-63.59375-72 24-24 104 40 48h106.976562c20.808594-32.929688 33.824219-71.246094 36.464844-112.40625zm0 0" fill="#09203f" data-original="#f0bc5e" style="" class=""/><path d="m192 328-40 48 31.769531 103.230469c20.445313 5.671875 41.972657 8.769531 64.230469 8.769531s43.785156-3.097656 64.230469-8.769531l31.769531-103.230469-40-48zm0 0" fill="#09203f" data-original="#f0bc5e" style="" class=""/><path d="m96 200-87.441406 63.59375c2.640625 41.160156 15.65625 79.476562 36.464844 112.40625h106.976562l40-48-24-104zm0 0" fill="#09203f" data-original="#f0bc5e" style="" class=""/><path d="m248 88-87.351562-63.527344c-37.96875 14.847656-71.234376 39.046875-96.929688 69.816406l.28125 1.710938 32 104 72 24 80-56zm0 0" fill="#09203f" data-original="#f0bc5e" style="" class=""/></g><path xmlns="http://www.w3.org/2000/svg" d="m248 0c-136.753906 0-248 111.257812-248 248s111.246094 248 248 248 248-111.257812 248-248-111.246094-248-248-248zm231.992188 248.289062-70.664063-51.394531 26.222656-85.222656c27.921875 38.304687 44.449219 85.40625 44.449219 136.328125 0 .097656-.007812.191406-.007812.289062zm-132.238282 119.710938-35.058594-42.070312 22.097657-95.761719 63.839843-21.28125 80.503907 58.546875c-3.066407 36.566406-14.570313 70.757812-32.648438 100.566406zm-199.507812 0h-98.734375c-18.085938-29.808594-29.589844-64-32.640625-100.566406l80.503906-58.546875 63.839844 21.28125 22.097656 95.761719zm28.761718-140.535156 70.992188-49.695313 70.992188 49.695313-21.359376 92.535156h-99.265624zm246.464844-130.96875-29.914062 97.214844-64.269532 21.425781-73.289062-51.304688v-71.761719l80.449219-58.511718c33.75 13.976562 63.480469 35.707031 87.023437 62.9375zm-105.113281-69.558594-70.359375 51.175781-70.359375-51.167969c22.199219-7.089843 45.839844-10.945312 70.359375-10.945312s48.160156 3.855469 70.359375 10.9375zm-158.808594 6.621094 80.449219 58.511718v71.761719l-73.289062 51.304688-64.269532-21.425781-29.914062-97.214844c23.542968-27.230469 53.273437-48.960938 87.023437-62.9375zm-99.101562 78.113281 26.222656 85.222656-70.664063 51.394531c0-.097656-.007812-.191406-.007812-.289062 0-50.921875 16.527344-98.023438 44.449219-136.328125zm-.234375 272.328125h85.882812l25.542969 83.023438c-45.089844-15.765626-83.855469-45.0625-111.425781-83.023438zm129.90625 88.6875-29.199219-94.894531 34.832031-41.792969h104.503906l34.832032 41.792969-29.203125 94.894531c-18.519531 4.777344-37.910157 7.3125-57.886719 7.3125s-39.367188-2.535156-57.878906-7.3125zm134.238281-5.664062 25.542969-83.023438h85.882812c-27.570312 37.960938-66.335937 67.257812-111.425781 83.023438zm0 0" fill="#000000" data-original="#000000" style="" class=""/></g></svg>
