<svg xmlns="http://www.w3.org/2000/svg" xmlns:xlink="http://www.w3.org/1999/xlink" xmlns:fi="http://pattern.flaticon.com/" x="0" y="0" width="700" height="350" viewBox="0 0 1225 612.5"><rect x="0px" y="0px" width="100%" height="100%" opacity="1" fill="#ffffff"/><defs><g transform="matrix(0.06905393326258097 0.008286472021913972 -0.008286472021913972 0.06905393326258097 101.94359519500632 212.7007735648396)" id="L1_64"><path d="M224.477,106.645c-11.925,0-23.275,4.267-32.469,11.968c-9.195-7.701-20.544-11.968-32.469-11.968    c-29.141,0-52.864,25.536-52.864,56.896c0,13.995,5.099,27.627,14.763,39.445c14.976,18.304,60.736,68.715,62.677,70.848    c2.027,2.219,4.885,3.499,7.893,3.499c3.008,0,5.867-1.28,7.893-3.499c1.941-2.133,47.701-52.565,62.677-70.848    c9.664-11.819,14.763-25.451,14.763-39.445C277.341,132.16,253.619,106.645,224.477,106.645z M246.045,189.504    c-10.923,13.376-39.936,45.675-54.037,61.291c-14.08-15.616-43.093-47.936-54.037-61.291c-4.544-5.547-9.963-14.571-9.963-25.941    c0-19.605,14.144-35.563,31.531-35.563c9.216,0,17.941,4.544,23.957,12.48c4.053,5.312,12.971,5.312,17.003,0    c6.037-7.936,14.763-12.48,23.979-12.48c17.387,0,31.531,15.957,31.531,35.563C256.008,174.933,250.589,183.957,246.045,189.504z"/><path d="M508.872,493.803L334.877,319.808c30.443-33.984,49.131-78.699,49.131-127.808c0-105.856-86.144-192-192-192    s-192,86.144-192,192s86.144,192,192,192c49.088,0,93.803-18.688,127.787-49.109L493.79,508.886    c2.091,2.069,4.821,3.115,7.552,3.115c2.731,0,5.461-1.045,7.531-3.115C513.032,504.725,513.032,497.963,508.872,493.803z     M313.245,311.957c-0.256,0.213-0.555,0.299-0.789,0.512c-0.235,0.235-0.32,0.533-0.512,0.789    c-30.848,30.507-73.216,49.408-119.936,49.408c-94.101,0-170.667-76.565-170.667-170.667S97.907,21.333,192.008,21.333    S362.675,97.899,362.675,192C362.675,238.72,343.773,281.088,313.245,311.957z"/></g><g transform="matrix(0.04076092317700386 0 0 0.04076092317700386 63.5 -6.999999696482348)" id="L1_65"><path d="M277.803,74.645c-11.925,0-23.275,4.267-32.469,11.968c-9.195-7.701-20.544-11.968-32.469-11.968    c-29.141,0-52.864,25.536-52.864,56.896c0,13.995,5.099,27.627,14.763,39.445c14.976,18.304,60.736,68.715,62.677,70.848    c2.027,2.219,4.885,3.499,7.893,3.499s5.867-1.28,7.893-3.499c1.941-2.133,47.701-52.565,62.677-70.848    c9.664-11.819,14.763-25.451,14.763-39.445C330.667,100.159,306.944,74.645,277.803,74.645z M299.371,157.503    c-10.923,13.376-39.936,45.675-54.037,61.291c-14.08-15.616-43.093-47.936-54.037-61.291c-4.544-5.547-9.963-14.571-9.963-25.941    c0-19.605,14.144-35.563,31.531-35.563c9.216,0,17.941,4.544,23.957,12.48c4.053,5.312,12.971,5.312,17.003,0    c6.037-7.936,14.763-12.48,23.979-12.48c17.387,0,31.531,15.957,31.531,35.563C309.333,142.932,303.915,151.956,299.371,157.503z"/><path d="M437.333,10.666h-384C23.936,10.666,0,34.603,0,64v277.333c0,29.397,23.936,53.333,53.333,53.333h181.333v64H96    c-5.888,0-10.667,4.779-10.667,10.667S90.112,480,96,480h298.667c5.888,0,10.667-4.779,10.667-10.667s-4.779-10.667-10.667-10.667    H256v-64h181.333c29.397,0,53.333-23.936,53.333-53.333V64C490.667,34.603,466.731,10.666,437.333,10.666z M469.333,341.333    c0,17.643-14.357,32-32,32h-384c-17.643,0-32-14.357-32-32v-32h448V341.333z M469.333,288h-448V64c0-17.643,14.357-32,32-32h384    c17.643,0,32,14.357,32,32V288z"/></g><g transform="matrix(0.06046963774522877 -0.005759013017290425 0.005759013017290425 0.06046963774522877 314.5454654047951 276.4940800696478)" id="L1_66"><path d="M362.667,21.333c-40.405,0-78.635,16.213-106.667,44.864c-28.032-28.651-66.261-44.864-106.667-44.864    C66.987,21.333,0,88.32,0,170.667c0,37.163,14.997,73.536,43.349,105.173c48.789,54.4,203.541,210.112,205.099,211.669    c0.256,0.256,0.619,0.363,0.896,0.597c0.576,0.469,1.152,0.875,1.813,1.216c0.64,0.32,1.259,0.555,1.963,0.747    c0.384,0.107,0.704,0.363,1.131,0.427c0.576,0.107,1.173,0.171,1.749,0.171c1.365,0,2.667-0.299,3.883-0.768    c0.427-0.171,0.768-0.469,1.173-0.683c0.747-0.405,1.451-0.811,2.069-1.365c0.128-0.107,0.299-0.171,0.427-0.277    c1.557-1.557,156.309-157.269,205.099-211.691C497.003,244.224,512,207.872,512,170.667C512,88.341,445.013,21.333,362.667,21.333    z M248.896,457.664C208.96,417.365,98.773,305.685,59.221,261.589c-17.28-19.307-37.888-50.709-37.888-90.923    c0-70.613,57.408-128,128-128c37.056,0,71.872,16,96.213,43.84c0.213,2.005,0.832,3.989,2.219,5.653l46.677,56l-77.483,67.797    c-3.648,3.2-4.693,8.448-2.517,12.8l39.893,79.787l-39.232,58.859c-2.816,4.224-2.24,9.877,1.344,13.461l38.784,38.784    L248.896,457.664z M452.779,261.589c-36.885,41.173-135.317,141.141-180.736,187.072l5.163-30.912    c0.555-3.413-0.555-6.869-2.987-9.301l-36.48-36.48l37.803-56.725c2.112-3.179,2.368-7.253,0.661-10.688l-38.976-77.952    l79.125-69.248c4.352-3.819,4.885-10.411,1.173-14.869L268.778,83.99c24.235-26.261,58.005-41.323,93.888-41.323    c70.592,0,128,57.408,128,128C490.667,210.88,470.059,242.283,452.779,261.589z"/><path d="M149.333,64C90.517,64,42.667,111.829,42.667,170.667c0,5.888,4.779,10.667,10.667,10.667S64,176.555,64,170.667    c0-47.061,38.272-85.333,85.333-85.333c5.888,0,10.667-4.779,10.667-10.667S155.221,64,149.333,64z"/></g><path d="M492.807,320.891c-1.024-3.285-3.563-5.845-6.805-6.933l-42.901-14.293c-3.328-15.509-7.296-29.355-10.709-39.36    c-1.109-3.221-3.691-5.739-6.955-6.741c-3.285-1.024-6.827-0.405-9.536,1.664l-69.525,52.139    c-15.339,11.52-24.939,29.099-26.283,48.235c-1.109,15.509,3.52,30.613,12.501,43.093l-76.736,76.693l0.064-178.048    c20.843-2.56,40.405-12.053,54.72-27.691c16.725-18.325,25.045-43.008,22.805-67.733l-3.52-38.571    c0.981-2.816,0.789-6.037-0.811-8.832l-9.301-102.336c-0.341-3.925-2.837-7.317-6.443-8.853c-3.584-1.536-7.744-0.96-10.837,1.472    l-9.856,7.893L253.553,3.792c-4.053-5.056-12.608-5.056-16.661,0l-37.333,46.677c-4.608-2.304-9.152-4.757-13.76-6.976    c-3.157-1.515-6.827-1.365-9.877,0.363c-3.029,1.707-5.035,4.821-5.355,8.299l-13.611,149.76    c-2.24,24.704,6.059,49.387,22.784,67.712c14.315,15.659,33.899,25.173,54.848,27.733l-0.043,175.381l-51.413-58.752    c6.293-11.179,9.536-23.957,8.619-37.013c-1.344-19.157-10.923-36.715-26.283-48.235l-69.525-52.139    c-2.709-2.069-6.251-2.688-9.536-1.664c-3.285,0.981-5.867,3.52-6.955,6.741c-3.413,10.005-7.381,23.851-10.709,39.36    l-42.901,14.293c-3.243,1.088-5.781,3.648-6.805,6.933c-1.024,3.285-0.427,6.848,1.643,9.579l45.035,60.075    c0.128,0.192,0.256,0.363,0.405,0.533l6.677,8.917c11.52,15.339,29.099,24.939,48.235,26.283c1.579,0.128,3.136,0.171,4.693,0.171    c16.192,0,31.659-6.165,43.819-16.939l67.627,77.291c0.064,0.064,0.149,0.085,0.235,0.171c0.107,0.107,0.128,0.256,0.235,0.363    c0.363,0.341,0.811,0.491,1.195,0.789c0.448,0.341,0.917,0.683,1.429,0.96c0.235,0.128,0.427,0.363,0.683,0.469    c0.064,0.021,0.107,0.064,0.171,0.085c1.301,0.533,2.688,0.832,4.075,0.832c1.301,0,2.603-0.277,3.84-0.747    c0.085-0.021,0.171-0.043,0.235-0.085c0.469-0.192,0.811-0.555,1.237-0.789c0.576-0.341,1.195-0.576,1.728-1.024    c0.085-0.085,0.128-0.213,0.213-0.299c0.085-0.086,0.192-0.107,0.277-0.171l94.891-94.827c11.2,8.064,24.597,12.608,38.507,12.608    c1.557,0,3.115-0.043,4.693-0.192c19.157-1.344,36.715-10.923,48.235-26.283l6.677-8.917c0.149-0.171,0.277-0.341,0.405-0.533    l45.056-60.075C493.233,327.717,493.831,324.155,492.807,320.891z M61.831,371.152L46.62,350.864l17.792-5.931    C63.153,353.616,62.236,362.469,61.831,371.152z M157.383,413.328c-9.173,9.195-21.888,13.931-34.837,13.013    c-12.971-0.896-24.875-7.403-32.683-17.792l-5.376-7.189c-4.587-26.987,1.728-67.093,10.752-98.688l57.429,43.072    c10.389,7.808,16.875,19.712,17.792,32.683C171.377,391.376,166.641,404.069,157.383,413.328z M300.38,73.851l4.395,48.363    c-9.301-9.92-19.605-18.987-30.635-27.371L300.38,73.851z M245.191,27.536l30.784,38.507l-19.989,16    c-11.84-7.808-24.299-14.933-36.992-21.717L245.191,27.536z M245.127,277.136c-19.115,0-36.736-7.787-49.621-21.888    s-19.029-32.363-17.301-51.392l12.203-134.357c19.584,9.749,38.848,20.245,56.533,32.128c0.192,0.299,0.405,0.576,0.619,0.853    c1.6,1.984,3.755,3.243,6.059,3.755c21.952,15.595,41.088,33.557,54.72,55.147l3.861,42.475    c1.728,19.029-4.437,37.291-17.323,51.413C281.969,269.371,264.369,277.136,245.127,277.136z M427.356,380.048l-5.376,7.189    c-7.808,10.389-19.712,16.875-32.683,17.792c-12.907,0.896-25.643-3.819-34.901-13.077c-9.195-9.173-13.931-21.888-13.013-34.837    c0.896-12.971,7.403-24.875,17.792-32.683l57.429-43.072C425.628,312.933,431.943,353.04,427.356,380.048z M450.012,349.819    c-0.405-8.683-1.323-17.536-2.581-26.219l17.792,5.931L450.012,349.819z" transform="matrix(0.05849386447755497 0.03743607405803813 -0.03743607405803813 0.05849386447755497 110.59505021217109 114.39989978944436)" id="L1_67"/><g transform="matrix(0.048208766511943155 -0.048208766511943155 0.048208766511943155 0.048208766511943155 169.3171115458851 294)" id="L1_68"><path d="M277.333,0h-42.667c-64.704,0-117.333,52.651-117.333,117.333v21.333c0,17.664,14.357,32,32,32s32-14.357,32-32v-21.333    C181.333,87.936,205.27,64,234.667,64h42.667c29.397,0,53.333,23.936,53.333,53.355c0,34.453-20.693,65.024-52.693,77.824    l-94.528,37.803c-40.171,16.064-66.112,54.4-66.112,97.664v128.021c0,29.397,23.936,53.333,53.333,53.333h170.667    c29.397,0,53.333-23.936,53.333-53.312V117.355C394.667,52.651,342.037,0,277.333,0z M373.333,458.667c0,17.643-14.357,32-32,32    H170.667c-17.643,0-32-14.357-32-32V330.624c0-34.453,20.693-65.024,52.693-77.824l94.528-37.803    C326.06,198.933,352,160.597,352,117.333c0-41.173-33.493-74.667-74.667-74.667h-42.667C193.493,42.667,160,76.16,160,117.333    v21.333c0,5.888-4.779,10.667-10.667,10.667s-10.667-4.779-10.667-10.667v-21.333c0-52.949,43.072-96,96-96h42.667    c52.928,0,96,43.072,96,96V458.667z"/><path d="M283.82,298.667c-10.155,0-19.84,3.499-27.819,9.813c-7.957-6.315-17.664-9.813-27.819-9.813    c-25.835,0-46.848,22.549-46.848,50.283c0,12.331,4.501,24.363,13.013,34.773c12.843,15.701,52.096,58.944,53.76,60.779    C250.133,446.72,252.992,448,256,448s5.867-1.28,7.893-3.499c1.685-1.835,40.917-45.077,53.781-60.779    c8.491-10.389,12.992-22.421,12.992-34.773C330.667,321.216,309.654,298.667,283.82,298.667z M301.164,370.197    c-9.088,11.093-32.725,37.44-45.163,51.221c-12.416-13.76-36.075-40.107-45.141-51.2c-5.44-6.635-8.192-13.824-8.192-21.269    c0-15.957,11.456-28.949,25.515-28.949c7.403,0,14.464,3.669,19.307,10.069c4.053,5.312,12.971,5.312,17.003,0    c4.864-6.421,11.925-10.091,19.328-10.091c14.059,0,25.515,12.992,25.515,28.949C309.333,356.395,306.581,363.563,301.164,370.197    z"/></g><g transform="matrix(0.039060745388269424 0 0 0.039060745388269424 252.5 340)" id="L1_69"><path d="M170.934,85.867c-7.765,0-15.296,2.475-21.696,6.997c-6.379-4.992-13.483-7.509-21.227-7.509    c-23.168,0-42.731,19.2-42.731,43.392c0,38.293,51.776,78.059,57.685,82.475c1.899,1.429,4.139,2.133,6.379,2.133    c2.283,0,4.544-0.725,6.464-2.176c5.888-4.48,57.536-44.928,57.429-82.901c0.043-0.448,0.107-1.28,0.107-1.728    C213.345,104.107,194.316,85.867,170.934,85.867z M192.012,128.021c0,20.416-26.731,47.403-42.731,60.992    c-16-13.333-42.688-39.787-42.709-59.392c0.064-0.576,0.064-1.771,0.043-2.347c0-12.139,11.264-20.587,21.397-20.587    c2.837,0,7.211,0.789,12.608,7.616c4.053,5.099,12.672,5.099,16.725,0c10.773-13.589,34.667-5.76,34.667,12.267l0.021-0.32    C192.012,126.869,192.012,127.701,192.012,128.021z"/><path d="M437.345,0H266.678c-4.267,0-8.384,0.533-12.437,1.216c-5.824,0.981-9.728,6.485-8.768,12.288    c0.981,5.803,6.485,9.813,12.288,8.768c2.923-0.469,5.867-0.917,8.917-0.917h170.667c29.397,0,53.333,23.936,53.333,53.333v10.667    h-160c-5.888,0-10.667,4.779-10.667,10.667s4.779,10.667,10.667,10.667h160v277.333H213.345v-53.333    c0-5.888-4.779-10.667-10.667-10.667s-10.667,4.779-10.667,10.667v106.667c0,41.173,33.493,74.667,74.667,74.667h170.667    c41.173,0,74.667-33.493,74.667-74.688V74.667C512.011,33.493,478.518,0,437.345,0z M490.678,437.355    c0,29.397-23.936,53.333-53.333,53.333H266.678c-29.397,0-53.333-23.936-53.333-53.333v-32h277.333V437.355z"/><path d="M437.771,42.688h-0.213c-5.888,0-10.56,4.779-10.56,10.667s4.885,10.667,10.773,10.667    c5.889-0.001,10.667-4.779,10.667-10.667S443.659,42.688,437.771,42.688z"/><path d="M245.345,42.688h-192c-29.397,0-53.333,23.936-53.333,53.333v106.667c0,29.397,23.936,53.333,53.333,53.333h103.104    l82.496,61.867c1.899,1.429,4.16,2.133,6.4,2.133c2.197,0,4.373-0.661,6.229-2.005c3.797-2.731,5.355-7.595,3.883-12.032    l-16.64-49.963h6.528c29.397,0,53.333-23.936,53.333-53.333V96.021C298.678,66.624,274.742,42.688,245.345,42.688z     M277.345,202.688c0,17.643-14.357,32-32,32h-21.333c-3.435,0-6.656,1.664-8.661,4.437c-1.984,2.795-2.539,6.379-1.451,9.621    l10.539,31.595l-58.027-43.52c-1.856-1.387-4.096-2.133-6.4-2.133H53.345c-17.643,0-32-14.357-32-32V96.021    c0-17.643,14.357-32,32-32h192c17.643,0,32,14.357,32,32V202.688z"/><path d="M373.345,42.687h-42.667c-5.888,0-10.667,4.779-10.667,10.667s4.779,10.667,10.667,10.667h42.667    c5.888,0,10.667-4.779,10.667-10.667S379.233,42.687,373.345,42.687z"/><path d="M352.012,426.689c-11.776,0-21.333,9.557-21.333,21.333s9.557,21.333,21.333,21.333s21.333-9.557,21.333-21.333    S363.788,426.689,352.012,426.689z"/></g><g transform="matrix(0.05412033145511734 0.0260579368172599 -0.0260579368172599 0.05412033145511734 170.3158705701206 34.97420691968354)" id="L1_70"><path d="M508.895,237.783l-60.885-60.885V10.668c0-5.888-4.779-10.667-10.667-10.667H352.01c-5.888,0-10.667,4.779-10.667,10.667    v59.584l-59.605-59.584c-13.717-13.717-37.696-13.76-51.477,0L3.124,237.783c-3.051,3.051-3.968,7.637-2.304,11.627    c1.643,3.989,5.568,6.592,9.856,6.592h53.333v245.333c0,5.888,4.779,10.667,10.667,10.667h362.667    c5.888,0,10.667-4.779,10.645-10.667V256.002h53.333c4.309,0,8.213-2.603,9.856-6.592    C512.842,245.42,511.946,240.834,508.895,237.783z M437.343,234.668c-5.888,0-10.667,4.779-10.667,10.667v245.333H85.385V245.335    c0-5.888-4.779-10.667-10.667-10.667H36.447L245.364,25.751c5.632-5.611,15.659-5.653,21.312,0l77.803,77.803    c3.072,3.051,7.637,3.989,11.627,2.304c3.989-1.643,6.592-5.547,6.592-9.856V21.335h64v160c0,2.837,1.109,5.547,3.115,7.552    l45.803,45.781H437.343z"/><path d="M288.5,234.668c-11.925,0-23.275,4.267-32.469,11.968c-9.195-7.723-20.565-11.968-32.469-11.968    c-29.163,0-52.885,25.515-52.885,56.896c0,13.995,5.099,27.627,14.763,39.445c14.976,18.304,60.736,68.715,62.677,70.848    c2.048,2.197,4.885,3.477,7.893,3.477s5.867-1.28,7.893-3.499c1.941-2.133,47.701-52.565,62.677-70.848    c9.664-11.819,14.763-25.429,14.763-39.424C341.343,260.162,317.62,234.668,288.5,234.668z M310.068,317.506    c-10.923,13.376-39.936,45.675-54.037,61.291c-14.08-15.616-43.093-47.936-54.037-61.291c-4.544-5.547-9.984-14.549-9.984-25.941    c0-19.605,14.165-35.563,31.552-35.563c9.216,0,17.941,4.544,23.957,12.48c4.053,5.312,12.971,5.312,17.003,0    c6.037-7.915,14.763-12.48,23.979-12.48c17.387,0,31.509,15.957,31.509,35.563C320.009,302.956,314.612,311.959,310.068,317.506z"/></g><g transform="matrix(0.07046606517162544 0.015659125504545356 -0.015659125504545356 0.07046606517162544 304.9694234452275 48.951951186900274)" id="L1_71"><path d="M362.668,341.333H149.334c-5.888,0-10.667,4.779-10.667,10.667s4.779,10.667,10.667,10.667h213.333    c5.888,0,10.667-4.779,10.667-10.667C373.334,346.112,368.556,341.333,362.668,341.333z"/><path d="M298.668,405.333H149.334c-5.888,0-10.667,4.779-10.667,10.667s4.779,10.667,10.667,10.667h149.333    c5.888,0,10.667-4.779,10.667-10.667C309.334,410.112,304.556,405.333,298.668,405.333z"/><path d="M426.668,0H213.334c-1.429,0-2.837,0.299-4.139,0.832c-0.405,0.171-0.704,0.491-1.067,0.725    c-0.811,0.469-1.664,0.896-2.347,1.557l-128,128c-0.491,0.491-0.768,1.152-1.152,1.728c-0.384,0.576-0.875,1.067-1.131,1.707    c-0.533,1.301-0.832,2.688-0.832,4.117v362.667c0,5.888,4.779,10.667,10.667,10.667h341.333c5.888,0,10.667-4.779,10.667-10.667    V10.667C437.334,4.779,432.556,0,426.668,0z M202.668,36.416V128h-91.584L202.668,36.416z M416.001,490.667h-320V149.333h117.333    c5.888,0,10.667-4.779,10.667-10.667V21.333h192V490.667z"/><path d="M362.668,277.333H149.334c-5.888,0-10.667,4.779-10.667,10.667s4.779,10.667,10.667,10.667h213.333    c5.888,0,10.667-4.779,10.667-10.667S368.556,277.333,362.668,277.333z"/><path d="M394.647,84.01c-0.705-22.933-19.563-41.343-42.646-41.343c-7.531,0-14.869,2.027-21.333,5.824    c-6.464-3.797-13.803-5.824-21.333-5.824c-23.083,0-41.941,18.411-42.581,42.005c-0.064,0.448-0.085,0.917-0.085,1.387    c-0.001,38.293,51.775,78.058,57.684,82.474c1.899,1.429,4.139,2.133,6.379,2.133c2.283,0,4.544-0.725,6.464-2.155    c5.888-4.48,57.536-44.928,57.536-83.157C394.732,84.906,394.689,84.458,394.647,84.01z M330.668,146.325    c-16-13.355-42.667-39.893-42.688-60.267c0.021-0.234,0.021-0.49,0-0.725C287.98,73.578,297.56,64,309.313,64    c5.184,0,10.219,1.984,14.208,5.568c4.053,3.648,10.24,3.648,14.272,0c3.989-3.584,9.024-5.568,14.208-5.568    c11.755,0,21.333,9.579,21.333,21.333c0,0.32,0,0.64,0.043,0.96C372.566,106.581,346.412,132.949,330.668,146.325z"/><path d="M362.668,213.333H149.334c-5.888,0-10.667,4.779-10.667,10.667s4.779,10.667,10.667,10.667h213.333    c5.888,0,10.667-4.779,10.667-10.667S368.556,213.333,362.668,213.333z"/></g><g transform="matrix(0.0608925330848611 -0.03382918432057157 0.03382918432057157 0.0608925330848611 202.75124034420924 182.0717827163419)" id="L1_72"><path d="M512,149.334C512,66.988,445.013,0.001,362.667,0.001c-40.406,0-78.635,16.213-106.667,44.864    C227.968,16.214,189.739,0.001,149.333,0.001C66.987,0.001,0,66.988,0,149.334c0,37.163,14.997,73.536,43.349,105.173    c48.789,54.4,203.541,210.112,205.099,211.669c1.984,2.027,4.715,3.157,7.552,3.157c2.837,0,5.568-1.131,7.552-3.157l14.72-14.827    c28.501,29.739,53.397,55.339,55.445,57.429c1.984,2.048,4.736,3.221,7.616,3.221s5.632-1.173,7.637-3.221    c4.139-4.288,102.016-104.917,133.888-141.269C501.931,345.772,512,320.726,512,295.105c0-25.387-9.387-48.363-24.363-66.347    C503.552,203.5,512,176.876,512,149.334z M256,443.5c-31.787-32.043-154.56-156.16-196.779-203.243    c-17.28-19.307-37.888-50.709-37.888-90.923c0-70.613,57.408-128,128-128c38.144,0,74.027,16.853,98.453,46.251    c4.053,4.885,12.373,4.885,16.405,0c24.448-29.419,60.331-46.251,98.475-46.251c70.592,0,128,57.408,128,128    c0,21.973-6.123,43.456-18.197,64c-1.024-0.789-2.155-1.365-3.2-2.112c-1.643-1.195-3.328-2.24-5.035-3.328    c-3.605-2.304-7.296-4.352-11.115-6.165c-1.792-0.853-3.584-1.664-5.419-2.411c-4.117-1.643-8.363-2.944-12.693-4.032    c-1.771-0.448-3.477-1.003-5.269-1.344c-6.165-1.195-12.437-1.941-18.837-1.941c-26.112,0-50.88,10.176-69.568,28.288    c-18.709-18.112-43.456-28.288-69.568-28.288c-55.744,0-101.099,46.251-101.099,103.104c0,25.643,10.069,50.667,29.141,72.405    c2.581,2.944,5.717,6.443,9.088,10.133c1.088,1.195,2.219,2.432,3.392,3.733c3.563,3.883,7.317,7.979,11.435,12.395    c1.024,1.109,2.197,2.347,3.285,3.499c4.352,4.651,8.896,9.493,13.611,14.485c0.832,0.875,1.579,1.685,2.432,2.581    c6.699,7.083,13.589,14.357,20.501,21.589L256,443.5z M490.667,295.105c0,25.728-12.971,45.909-23.851,58.325    c-26.389,30.101-101.269,107.584-125.483,132.565c-12.032-12.437-36.651-37.888-61.568-64c-3.435-3.605-6.72-7.061-9.941-10.432    c-5.163-5.419-10.219-10.773-15.168-16.021c-1.771-1.877-3.52-3.733-5.184-5.504c-3.883-4.117-7.595-8.085-11.136-11.904    c-2.496-2.667-4.843-5.227-7.061-7.616c-2.389-2.603-4.629-5.056-6.741-7.381c-2.432-2.688-4.672-5.163-6.592-7.339    c-0.683-0.768-1.472-1.643-2.091-2.347C204.971,341.036,192,320.854,192,295.105c0-45.077,35.776-81.771,79.765-81.771    c23.744,0,46.08,10.752,61.291,29.461c4.053,4.971,12.501,4.971,16.555,0c15.232-18.709,37.568-29.461,61.291-29.461    c1.813,0,3.563,0.405,5.355,0.533c3.52,0.235,7.061,0.384,10.432,1.088c2.005,0.405,3.883,1.237,5.845,1.813    c3.072,0.896,6.229,1.664,9.131,2.923c1.835,0.789,3.52,1.963,5.291,2.901c2.816,1.472,5.696,2.837,8.299,4.608    c2.325,1.6,4.395,3.648,6.571,5.504C479.317,247.702,490.667,269.953,490.667,295.105z"/><path d="M149.333,42.668c-58.816,0-106.667,47.829-106.667,106.667c0,5.888,4.779,10.667,10.667,10.667S64,155.222,64,149.334    c0-47.061,38.272-85.333,85.333-85.333c5.888,0,10.667-4.779,10.667-10.667S155.221,42.668,149.333,42.668z"/><path d="M271.765,234.668c-32.213,0-58.432,27.072-58.432,60.437c0,5.888,4.779,10.667,10.667,10.667s10.667-4.757,10.667-10.667    c0-21.568,16.64-39.104,37.099-39.104c5.888,0,10.667-4.779,10.667-10.667S277.653,234.668,271.765,234.668z"/></g><g transform="matrix(0.07621490210294724 0 0 0.07621490210294724 -18.05974731221795 115.9474203374993)" id="L1_73"><path d="M321.013,76.638c-20.48-19.712-43.669-42.048-43.669-55.296c0-4.309-2.603-8.213-6.592-9.856    c-3.989-1.664-8.555-0.747-11.627,2.304L225.76,47.155L105.716,167.199c-4.16,4.16-4.16,10.923,0,15.083    c2.091,2.069,4.821,3.114,7.552,3.114s5.44-1.024,7.531-3.115L232.351,70.729c8.747,10.24,19.733,20.843,31.211,31.915    c26.475,25.493,56.448,54.4,56.448,78.677c0,12.011-1.152,21.397-3.541,28.693c-1.835,5.589,1.216,11.605,6.827,13.44    c1.088,0.363,2.219,0.533,3.307,0.533c4.501,0,8.661-2.859,10.133-7.36c3.115-9.451,4.608-21.013,4.608-35.307    c0-33.344-32-64.192-62.955-94.037c-11.627-11.2-22.72-21.888-30.891-31.68l14.208-14.208    c8.512,15.936,25.621,32.384,44.523,50.603c26.475,25.515,56.469,54.4,56.469,78.677c0,20.757-3.541,32.043-6.208,38.72    c-2.197,5.461,0.491,11.669,5.952,13.845c5.44,2.176,11.648-0.491,13.845-5.952c5.269-13.205,7.723-28.011,7.723-46.613    C384.01,137.331,351.989,106.462,321.013,76.638z"/><path d="M376.265,294.688c-2.176-5.484-8.405-8.172-13.845-5.953c-5.461,2.176-8.149,8.384-5.952,13.845    c2.667,6.677,6.208,17.963,6.208,38.72c0,24.277-29.995,53.184-56.469,78.677c-18.901,18.219-36.011,34.688-44.523,50.603    l-14.208-14.208c8.192-9.792,19.285-20.48,30.891-31.68c30.976-29.845,62.976-60.693,62.976-94.037    c0-14.293-1.493-25.856-4.608-35.285c-1.813-5.589-7.829-8.661-13.44-6.827c-5.611,1.835-8.661,7.851-6.827,13.44    c2.389,7.296,3.541,16.683,3.541,28.693c0,24.277-29.995,53.184-56.448,78.677c-11.477,11.072-22.485,21.675-31.211,31.915    L120.799,329.716c-4.16-4.16-10.923-4.16-15.083,0c-4.16,4.16-4.16,10.923,0,15.083l120.043,120.043l33.365,33.365    c2.048,2.027,4.779,3.115,7.552,3.115c1.365,0,2.752-0.256,4.075-0.811c3.989-1.643,6.592-5.547,6.592-9.856    c0-13.248,23.189-35.584,43.648-55.317c30.976-29.845,62.997-60.693,62.997-94.037    C383.988,322.698,381.535,307.893,376.265,294.688z"/><path d="M508.49,248.095c0,0-30.101-27.328-40.661-35.968c-7.573-6.208-16.363-9.472-25.408-9.472    c-20.437,0-37.077,15.595-37.077,34.773c0,2.709,0.555,5.312,1.195,7.893H123.935l-18.389-36.779    c-1.813-3.605-5.504-5.888-9.536-5.888H10.676c-4.309,0-8.213,2.603-9.856,6.592c-1.664,3.989-0.747,8.576,2.304,11.627    l35.115,35.115L3.124,291.103c-3.051,3.051-3.968,7.637-2.304,11.627c1.643,3.989,5.547,6.592,9.856,6.592H96.01    c4.032,0,7.723-2.283,9.536-5.909l18.368-36.757h282.603c-0.64,2.581-1.195,5.184-1.195,7.893    c0,19.179,16.64,34.773,37.077,34.773c9.045,0,17.835-3.264,25.429-9.472c10.539-8.64,40.64-35.968,40.64-35.968    c2.24-2.027,3.52-4.885,3.52-7.893C511.988,252.981,510.708,250.122,508.49,248.095z M89.417,287.988H36.425l24.448-24.469    c4.16-4.16,4.16-10.923,0-15.083l-24.448-24.448h52.992l16,32L89.417,287.988z M454.367,283.337    c-11.776,9.579-27.691,2.133-27.691-8.789c0-3.285,1.664-6.315,4.224-8.768c3.797-1.643,6.443-5.397,6.443-9.792    c0-4.395-2.667-8.149-6.443-9.771c-2.56-2.453-4.224-5.504-4.224-8.789c0-7.403,7.061-13.44,15.744-13.44    c4.139,0,8.149,1.579,11.925,4.651c6.72,5.504,21.547,18.752,31.104,27.349C475.892,264.586,461.066,277.833,454.367,283.337z"/></g></defs><g fi:class="KUsePattern"><pattern id="pattern_L1_64" width="350" height="350" patternUnits="userSpaceOnUse"><use xlink:href="#L1_64" x="-350" y="-350"/><use xlink:href="#L1_64" x="0" y="-350"/><use xlink:href="#L1_64" x="350" y="-350"/><use xlink:href="#L1_64" x="-350" y="0"/><use xlink:href="#L1_64" x="0" y="0"/><use xlink:href="#L1_64" x="350" y="0"/><use xlink:href="#L1_64" x="-350" y="350"/><use xlink:href="#L1_64" x="0" y="350"/><use xlink:href="#L1_64" x="350" y="350"/></pattern><rect x="0" y="0" width="100%" height="100%" fill="url(#pattern_L1_64)"/></g><g fi:class="KUsePattern"><pattern id="pattern_L1_65" width="350" height="350" patternUnits="userSpaceOnUse"><use xlink:href="#L1_65" x="-350" y="-350"/><use xlink:href="#L1_65" x="0" y="-350"/><use xlink:href="#L1_65" x="350" y="-350"/><use xlink:href="#L1_65" x="-350" y="0"/><use xlink:href="#L1_65" x="0" y="0"/><use xlink:href="#L1_65" x="350" y="0"/><use xlink:href="#L1_65" x="-350" y="350"/><use xlink:href="#L1_65" x="0" y="350"/><use xlink:href="#L1_65" x="350" y="350"/></pattern><rect x="0" y="0" width="100%" height="100%" fill="url(#pattern_L1_65)"/></g><g fi:class="KUsePattern"><pattern id="pattern_L1_66" width="350" height="350" patternUnits="userSpaceOnUse"><use xlink:href="#L1_66" x="-350" y="-350"/><use xlink:href="#L1_66" x="0" y="-350"/><use xlink:href="#L1_66" x="350" y="-350"/><use xlink:href="#L1_66" x="-350" y="0"/><use xlink:href="#L1_66" x="0" y="0"/><use xlink:href="#L1_66" x="350" y="0"/><use xlink:href="#L1_66" x="-350" y="350"/><use xlink:href="#L1_66" x="0" y="350"/><use xlink:href="#L1_66" x="350" y="350"/></pattern><rect x="0" y="0" width="100%" height="100%" fill="url(#pattern_L1_66)"/></g><g fi:class="KUsePattern"><pattern id="pattern_L1_67" width="350" height="350" patternUnits="userSpaceOnUse"><use xlink:href="#L1_67" x="-350" y="-350"/><use xlink:href="#L1_67" x="0" y="-350"/><use xlink:href="#L1_67" x="350" y="-350"/><use xlink:href="#L1_67" x="-350" y="0"/><use xlink:href="#L1_67" x="0" y="0"/><use xlink:href="#L1_67" x="350" y="0"/><use xlink:href="#L1_67" x="-350" y="350"/><use xlink:href="#L1_67" x="0" y="350"/><use xlink:href="#L1_67" x="350" y="350"/></pattern><rect x="0" y="0" width="100%" height="100%" fill="url(#pattern_L1_67)"/></g><g fi:class="KUsePattern"><pattern id="pattern_L1_68" width="350" height="350" patternUnits="userSpaceOnUse"><use xlink:href="#L1_68" x="-350" y="-350"/><use xlink:href="#L1_68" x="0" y="-350"/><use xlink:href="#L1_68" x="350" y="-350"/><use xlink:href="#L1_68" x="-350" y="0"/><use xlink:href="#L1_68" x="0" y="0"/><use xlink:href="#L1_68" x="350" y="0"/><use xlink:href="#L1_68" x="-350" y="350"/><use xlink:href="#L1_68" x="0" y="350"/><use xlink:href="#L1_68" x="350" y="350"/></pattern><rect x="0" y="0" width="100%" height="100%" fill="url(#pattern_L1_68)"/></g><g fi:class="KUsePattern"><pattern id="pattern_L1_69" width="350" height="350" patternUnits="userSpaceOnUse"><use xlink:href="#L1_69" x="-350" y="-350"/><use xlink:href="#L1_69" x="0" y="-350"/><use xlink:href="#L1_69" x="350" y="-350"/><use xlink:href="#L1_69" x="-350" y="0"/><use xlink:href="#L1_69" x="0" y="0"/><use xlink:href="#L1_69" x="350" y="0"/><use xlink:href="#L1_69" x="-350" y="350"/><use xlink:href="#L1_69" x="0" y="350"/><use xlink:href="#L1_69" x="350" y="350"/></pattern><rect x="0" y="0" width="100%" height="100%" fill="url(#pattern_L1_69)"/></g><g fi:class="KUsePattern"><pattern id="pattern_L1_70" width="350" height="350" patternUnits="userSpaceOnUse"><use xlink:href="#L1_70" x="-350" y="-350"/><use xlink:href="#L1_70" x="0" y="-350"/><use xlink:href="#L1_70" x="350" y="-350"/><use xlink:href="#L1_70" x="-350" y="0"/><use xlink:href="#L1_70" x="0" y="0"/><use xlink:href="#L1_70" x="350" y="0"/><use xlink:href="#L1_70" x="-350" y="350"/><use xlink:href="#L1_70" x="0" y="350"/><use xlink:href="#L1_70" x="350" y="350"/></pattern><rect x="0" y="0" width="100%" height="100%" fill="url(#pattern_L1_70)"/></g><g fi:class="KUsePattern"><pattern id="pattern_L1_71" width="350" height="350" patternUnits="userSpaceOnUse"><use xlink:href="#L1_71" x="-350" y="-350"/><use xlink:href="#L1_71" x="0" y="-350"/><use xlink:href="#L1_71" x="350" y="-350"/><use xlink:href="#L1_71" x="-350" y="0"/><use xlink:href="#L1_71" x="0" y="0"/><use xlink:href="#L1_71" x="350" y="0"/><use xlink:href="#L1_71" x="-350" y="350"/><use xlink:href="#L1_71" x="0" y="350"/><use xlink:href="#L1_71" x="350" y="350"/></pattern><rect x="0" y="0" width="100%" height="100%" fill="url(#pattern_L1_71)"/></g><g fi:class="KUsePattern"><pattern id="pattern_L1_72" width="350" height="350" patternUnits="userSpaceOnUse"><use xlink:href="#L1_72" x="-350" y="-350"/><use xlink:href="#L1_72" x="0" y="-350"/><use xlink:href="#L1_72" x="350" y="-350"/><use xlink:href="#L1_72" x="-350" y="0"/><use xlink:href="#L1_72" x="0" y="0"/><use xlink:href="#L1_72" x="350" y="0"/><use xlink:href="#L1_72" x="-350" y="350"/><use xlink:href="#L1_72" x="0" y="350"/><use xlink:href="#L1_72" x="350" y="350"/></pattern><rect x="0" y="0" width="100%" height="100%" fill="url(#pattern_L1_72)"/></g><g fi:class="KUsePattern"><pattern id="pattern_L1_73" width="350" height="350" patternUnits="userSpaceOnUse"><use xlink:href="#L1_73" x="-350" y="-350"/><use xlink:href="#L1_73" x="0" y="-350"/><use xlink:href="#L1_73" x="350" y="-350"/><use xlink:href="#L1_73" x="-350" y="0"/><use xlink:href="#L1_73" x="0" y="0"/><use xlink:href="#L1_73" x="350" y="0"/><use xlink:href="#L1_73" x="-350" y="350"/><use xlink:href="#L1_73" x="0" y="350"/><use xlink:href="#L1_73" x="350" y="350"/></pattern><rect x="0" y="0" width="100%" height="100%" fill="url(#pattern_L1_73)"/></g></svg>