<?xml version="1.0"?>
<svg xmlns="http://www.w3.org/2000/svg" xmlns:xlink="http://www.w3.org/1999/xlink" xmlns:svgjs="http://svgjs.com/svgjs" version="1.1" width="512" height="512" x="0" y="0" viewBox="0 0 64 64" style="enable-background:new 0 0 512 512" xml:space="preserve" class=""><circle r="32" cx="32" cy="32" fill="#bac8d3" shape="circle"/><g transform="matrix(0.7,0,0,0.7,9.58336615562439,9.5849129319191)"><g xmlns="http://www.w3.org/2000/svg" id="wrench_work_construction_equipment" data-name="wrench work construction equipment"><path d="m13.155 4.1 5.845 5.844a6.4 6.4 0 1 1 -9.056 9.056l-5.844-5.845a16 16 0 1 0 9.055-9.055z" fill="#09203f" data-original="#4370ff" style="" class=""/><circle cx="52.998" cy="52.998" r="2" fill="#000000" data-original="#000000" style="" class=""/><path d="m60.069 45.928-23.445-23.445a17.963 17.963 0 0 0 -24.2-20.241l-.685 3.276 5.842 5.841a4.4 4.4 0 1 1 -6.224 6.224l-5.838-5.841-3.276.685a17.987 17.987 0 0 0 30.815 17.8l-2.858-2.856a13.989 13.989 0 0 1 -25.059-10.351l3.391 3.391a8.4 8.4 0 0 0 11.88-11.88l-3.391-3.391a13.98 13.98 0 0 1 15.152 18.547l2.37 2.37 22.7 22.7a6 6 0 0 1 -8.485 8.485l-19.042-19.042a21.663 21.663 0 0 1 -3.939 1.717l20.151 20.152a10 10 0 0 0 14.141-14.141z" fill="#000000" data-original="#000000" style="" class=""/></g></g></svg>
